<svg width="35" height="16" viewBox="0 0 35 16" fill="none" xmlns="http://www.w3.org/2000/svg">
<path d="M26.9911 1.66683C26.6228 1.25526 26.6579 0.623069 27.0694 0.254789C27.481 -0.11349 28.1132 -0.0783975 28.4815 0.333171L26.9911 1.66683ZM34 8L34.7452 7.33317C35.0849 7.71282 35.0849 8.28718 34.7452 8.66683L34 8ZM28.4815 15.6668C28.1132 16.0784 27.481 16.1135 27.0694 15.7452C26.6579 15.3769 26.6228 14.7447 26.9911 14.3332L28.4815 15.6668ZM1 9C0.447716 9 0 8.55228 0 8C0 7.44772 0.447716 7 1 7V9ZM28.4815 0.333171L34.7452 7.33317L33.2548 8.66683L26.9911 1.66683L28.4815 0.333171ZM34.7452 8.66683L28.4815 15.6668L26.9911 14.3332L33.2548 7.33317L34.7452 8.66683ZM34 9H1V7H34V9Z" fill="black"/>
</svg>
