<svg width="19" height="21" viewBox="0 0 19 21" fill="none" xmlns="http://www.w3.org/2000/svg">
<path d="M18 9.17351C18 13.0031 11.8825 18.2957 10.0271 19.8128C9.72184 20.0624 9.27816 20.0624 8.9729 19.8128C7.11754 18.2957 1 13.0031 1 9.17351C1 4.6594 4.80558 1 9.5 1C14.1944 1 18 4.6594 18 9.17351Z" stroke="black" stroke-width="2"/>
<path d="M12.3333 7.86947C12.3333 9.38703 11.0648 10.6173 9.5 10.6173C7.93519 10.6173 6.66667 9.38703 6.66667 7.86947C6.66667 6.35191 7.93519 5.12168 9.5 5.12168C11.0648 5.12168 12.3333 6.35191 12.3333 7.86947Z" stroke="black" stroke-width="2"/>
</svg>
