<svg width="19" height="18" viewBox="0 0 19 18" fill="none" xmlns="http://www.w3.org/2000/svg">
<path d="M17.8666 1.06094C17.7843 1.00005 17.6783 0.984111 17.5826 1.01619L12.2264 2.83446L6.87113 1.01732C6.86207 1.01386 6.85302 1.01732 6.84415 1.01501C6.81924 1.0081 6.79565 1.0081 6.77093 1.0081C6.74621 1.0081 6.72244 1.0081 6.69772 1.01386C6.68847 1.01732 6.67961 1.01386 6.67055 1.01732L1.2153 2.8679C1.0868 2.91149 1 3.03423 1 3.1729V16.6787C1 16.782 1.04849 16.8794 1.13077 16.9391C1.18492 16.9793 1.25021 17 1.31569 17C1.34946 17 1.38324 16.9942 1.41607 16.9839L6.77229 15.1665L12.1275 16.9839C12.1602 16.9954 12.194 17 12.2279 17C12.2617 17 12.2955 16.9942 12.3283 16.9839L17.7836 15.1333C17.9121 15.0897 18 14.967 18 14.8281L17.9998 1.32134C17.9975 1.2182 17.9491 1.12178 17.8668 1.06109L17.8666 1.06094ZM1.63128 3.40473L6.4555 1.76755V14.5953L1.63128 16.2325V3.40473ZM7.08653 1.76755L11.9107 3.40473V16.2325L7.08653 14.5953V1.76755ZM17.3661 14.5953L12.5419 16.2325V3.40473L17.3661 1.76755V14.5953Z" fill="black" stroke="black"/>
</svg>
