<svg width="20" height="26" viewBox="0 0 20 26" fill="none" xmlns="http://www.w3.org/2000/svg">
<path d="M11.2357 24.387L11.6801 25.2828H11.6801L11.2357 24.387ZM10.8438 24.5814L10.3994 23.6856H10.3994L10.8438 24.5814ZM9.15621 24.5814L9.6006 23.6856H9.6006L9.15621 24.5814ZM8.76428 24.387L8.31989 25.2828H8.31989L8.76428 24.387ZM2.36754 3.447L2.05003 2.49874L2.05003 2.49874L2.36754 3.447ZM9.36755 1.1031L9.68506 2.05135V2.05135L9.36755 1.1031ZM10.6325 1.1031L10.95 0.154845V0.154845L10.6325 1.1031ZM17.6325 3.447L17.95 2.49874V2.49874L17.6325 3.447ZM10.0168 1.00007L10.0252 0.000105858L10.0168 1.00007ZM10.0168 24.7792L10.0079 23.7793H10.0079L10.0168 24.7792ZM17.4977 18.1589L16.6047 17.7088L17.4977 18.1589ZM2.50228 18.1589L1.60928 18.6089H1.60928L2.50228 18.1589ZM7.7087 12.2402C7.31906 11.8488 6.6859 11.8473 6.29449 12.237C5.90309 12.6266 5.90166 13.2598 6.2913 13.6512L7.7087 12.2402ZM9 14.9547L8.2913 15.6602C8.47896 15.8487 8.734 15.9547 9 15.9547C9.266 15.9547 9.52104 15.8487 9.7087 15.6602L9 14.9547ZM14.7087 10.6376C15.0983 10.2462 15.0969 9.61302 14.7055 9.22338C14.3141 8.83374 13.6809 8.83517 13.2913 9.22657L14.7087 10.6376ZM10.7913 23.4912L10.3994 23.6856L11.2882 25.4773L11.6801 25.2828L10.7913 23.4912ZM9.6006 23.6856L9.20867 23.4912L8.31989 25.2828L8.71182 25.4773L9.6006 23.6856ZM2.68506 4.39525L9.68506 2.05135L9.05003 0.154845L2.05003 2.49874L2.68506 4.39525ZM10.3149 2.05135L17.3149 4.39525L17.95 2.49874L10.95 0.154845L10.3149 2.05135ZM9.01675 24.7792V25H11.0168V24.7792H9.01675ZM18 5.35296V9.69728H20V5.35296H18ZM18 9.69728V11.8368H20V9.69728H18ZM2 11.8368V9.70276H0V11.8368H2ZM2 9.70276V5.35296H0V9.70276H2ZM9.68506 2.05135C9.79003 2.0162 9.89925 1.99912 10.0083 2.00004L10.0252 0.000105858C9.69591 -0.00266433 9.36633 0.0489343 9.05003 0.154845L9.68506 2.05135ZM10.0083 2.00004C10.1119 2.00091 10.2153 2.01799 10.3149 2.05135L10.95 0.154845C10.6498 0.0543333 10.3376 0.00273496 10.0252 0.000105858L10.0083 2.00004ZM18.3907 18.6089C19.4488 16.5094 20 14.1895 20 11.8368H18C18 13.8772 17.5219 15.8888 16.6047 17.7088L18.3907 18.6089ZM3.39529 17.7088C2.47806 15.8888 2 13.8772 2 11.8368H0C0 14.1895 0.551212 16.5094 1.60928 18.6089L3.39529 17.7088ZM10.3994 23.6856C10.2757 23.7469 10.1419 23.7781 10.0079 23.7793L10.0256 25.7792C10.4582 25.7754 10.8903 25.6747 11.2882 25.4773L10.3994 23.6856ZM10.0079 23.7793C9.86861 23.7805 9.72913 23.7494 9.6006 23.6856L8.71181 25.4773C9.12543 25.6824 9.57588 25.7832 10.0256 25.7792L10.0079 23.7793ZM9.20867 23.4912C6.69998 22.2467 4.65985 20.218 3.39529 17.7088L1.60928 18.6089C3.06802 21.5034 5.42241 23.8455 8.31989 25.2828L9.20867 23.4912ZM11.6801 25.2828C14.5776 23.8455 16.932 21.5034 18.3907 18.6089L16.6047 17.7088C15.3401 20.218 13.3 22.2467 10.7913 23.4912L11.6801 25.2828ZM17.3149 4.39525C17.7217 4.53144 18 4.91572 18 5.35296H20C20 4.06067 19.1766 2.90948 17.95 2.49874L17.3149 4.39525ZM2.05003 2.49874C0.823386 2.90948 0 4.06067 0 5.35296H2C2 4.91572 2.27833 4.53144 2.68506 4.39525L2.05003 2.49874ZM6.2913 13.6512L8.2913 15.6602L9.7087 14.2492L7.7087 12.2402L6.2913 13.6512ZM9.7087 15.6602L14.7087 10.6376L13.2913 9.22657L8.2913 14.2492L9.7087 15.6602Z" fill="black" fill-opacity="0.8"/>
</svg>
