<svg width="20" height="20" viewBox="0 0 20 20" fill="none" xmlns="http://www.w3.org/2000/svg">
<path d="M13.375 10.75C12.3395 10.75 11.5 11.5895 11.5 12.625C11.5 13.6605 12.3395 14.5 13.375 14.5C14.4105 14.5 15.25 13.6605 15.25 12.625C15.25 11.5895 14.4105 10.75 13.375 10.75ZM13.375 10.75V5.5M6.625 9.25C5.58947 9.25 4.75 8.41053 4.75 7.375C4.75 6.33947 5.58947 5.5 6.625 5.5C7.66053 5.5 8.5 6.33947 8.5 7.375C8.5 8.41053 7.66053 9.25 6.625 9.25ZM6.625 9.25V14.5M10 19C7.90756 19 6.86135 19 6.00297 18.77C3.6736 18.1458 1.85415 16.3264 1.23 13.997C1 13.1387 1 12.0924 1 10C1 7.90756 1 6.86135 1.23 6.00297C1.85415 3.6736 3.6736 1.85415 6.00297 1.23C6.86135 1 7.90756 1 10 1C12.0924 1 13.1387 1 13.997 1.23C16.3264 1.85415 18.1458 3.6736 18.77 6.00297C19 6.86135 19 7.90756 19 10C19 12.0924 19 13.1387 18.77 13.997C18.1458 16.3264 16.3264 18.1458 13.997 18.77C13.1387 19 12.0924 19 10 19Z" stroke="black" stroke-width="2" stroke-linecap="round"/>
</svg>
