<svg width="21" height="21" viewBox="0 0 21 21" fill="none" xmlns="http://www.w3.org/2000/svg">
<path d="M8.91667 12.0833L12.0848 18.0093C12.9458 19.2147 13.3763 19.8178 13.842 19.9487C14.247 20.0626 14.6818 19.9846 15.0222 19.7374C15.4137 19.4532 15.6088 18.7382 15.9986 17.3091L19.6008 4.10132C19.9329 2.8838 20.0985 2.27506 19.9384 1.85569C19.7987 1.48996 19.5099 1.20113 19.1441 1.06149C18.7248 0.901363 18.116 1.06789 16.8985 1.39994L3.69046 5.00207C2.26135 5.39183 1.54686 5.58654 1.26259 5.97804C1.01542 6.31846 0.937438 6.75317 1.05128 7.15816C1.1822 7.62392 1.78487 8.05392 2.99026 8.9149L8.91667 12.0833ZM8.91667 12.0833L12.8338 8.16636" stroke="black" stroke-opacity="0.8" stroke-width="2" stroke-linecap="round"/>
</svg>
