<svg width="28" height="28" viewBox="0 0 28 28" fill="none" xmlns="http://www.w3.org/2000/svg">
<path d="M14 19.2C17.1411 19.2 19.6875 16.5809 19.6875 13.35C19.6875 10.1191 17.1411 7.5 14 7.5C10.8589 7.5 8.3125 10.1191 8.3125 13.35C8.3125 16.5809 10.8589 19.2 14 19.2ZM14 19.2C20.0996 19.3364 21.293 21.5127 21.5265 24.6009M14 19.2C7.8907 19.2 6.70319 21.4665 6.47236 24.6001M21.5265 24.6009C24.8391 22.2447 27 18.3747 27 14C27 6.8203 21.1797 1 14 1C6.8203 1 1 6.8203 1 14C1 18.3742 3.16038 22.2438 6.47236 24.6001M21.5265 24.6009C19.4025 26.1116 16.805 27 14 27C11.1945 27 8.59657 26.1113 6.47236 24.6001" stroke="black" stroke-width="2"/>
</svg>
